<?xml version="1.0" standalone="yes"?>
<svg xmlns="http://www.w3.org/2000/svg" width="1920" height="1080">
<path style="fill:#dcebf2; stroke:none;" d="M0 0L0 19L32 1C28.3014 -0.552002 23.9828 0 20 0L0 0z"/>
<path style="fill:#fafafa; stroke:none;" d="M1920 1080C1920 1074.38 1921.96 1064.25 1918.97 1059.33C1917.14 1056.31 1912.96 1054.68 1910 1053C1902.96 1049.02 1896.02 1044.88 1889 1040.85C1886.08 1039.18 1881.88 1037.58 1880.03 1034.62C1877.98 1031.34 1879 1025.7 1879 1022C1879 1012.45 1878.21 1002.52 1879.06 993.015C1879.55 987.484 1884.71 985.615 1889 983.15C1896.02 979.119 1902.96 974.977 1910 970.996C1912.96 969.325 1917.14 967.695 1918.97 964.671C1922.17 959.39 1920 948.039 1920 942L1920 896C1920 889.698 1921.47 881.274 1919.68 875.213C1918.56 871.407 1913.15 869.51 1910 867.719C1901.97 863.152 1894.01 858.451 1886 853.85C1881.13 851.052 1876.29 849.233 1876.02 842.996C1875.54 832.042 1876 820.965 1876 810C1876 806.065 1874.85 799.858 1877.03 796.379C1879.05 793.144 1883.82 791.418 1887 789.576C1894.33 785.323 1901.64 781.05 1909 776.85C1912.07 775.097 1916.91 773.361 1918.97 770.366C1921.81 766.247 1920 756.852 1920 752C1906.76 752.045 1894.2 762.759 1883 769.15C1879.21 771.314 1873.59 776.215 1869 775.703C1865.42 775.303 1862.1 772.034 1859.01 770.363C1850.88 765.963 1843 761.069 1835 756.424C1831.66 754.487 1826.24 752.578 1824.6 748.79C1821.82 742.337 1824 730.981 1824 724C1824 718.71 1822.14 708.995 1825.03 704.379C1827.2 700.896 1832.6 698.945 1836 696.873C1845.79 690.901 1857.17 682.452 1868 678.721C1873.1 676.961 1878.8 682.454 1883 684.85C1894.19 691.242 1906.77 701.955 1920 702L1920 557L1920 512C1920 505.57 1921.38 497.313 1919.68 491.093C1918.52 486.852 1913.47 484.995 1910 483L1888 470.281C1883.36 467.633 1879.28 465.845 1879.02 459.996C1878.6 450.37 1879 440.636 1879 431C1879 427.523 1878.11 422.468 1880.03 419.376C1882.08 416.065 1886.74 414.337 1890 412.526C1896.72 408.791 1903.33 404.832 1910 401C1912.96 399.301 1917.13 397.708 1918.97 394.671C1921.72 390.131 1920 381.171 1920 376C1913.56 376.428 1908.43 380.181 1903 383.397C1896.39 387.313 1889.66 391.026 1883 394.85C1878.33 397.533 1872.69 402.74 1867 400.543C1855.66 396.163 1844.47 387.808 1834 381.603C1830.33 379.427 1824.37 377.366 1822.03 373.621C1818.91 368.638 1821 357.732 1821 352L1821 333C1821 329.981 1820.38 326.05 1821.6 323.21C1823.35 319.166 1829.44 317.079 1833 314.989C1840.96 310.312 1848.99 305.748 1857 301.15C1860.61 299.076 1864.79 295.469 1869 294.863C1873.81 294.171 1879.08 298.9 1883 301.15C1889.66 304.974 1896.39 308.688 1903 312.603C1908.43 315.819 1913.56 319.572 1920 320C1920 314.602 1921.84 305.059 1918.97 300.329C1917.13 297.292 1912.96 295.699 1910 294C1903.33 290.168 1896.72 286.209 1890 282.474C1886.74 280.663 1882.08 278.935 1880.03 275.624C1878.11 272.532 1879 267.477 1879 264C1879 254.364 1878.6 244.63 1879.02 235.004C1879.31 228.406 1884.92 226.526 1890 223.576C1898.51 218.638 1910.57 214.119 1917.57 207.211C1922.49 202.346 1920 189.426 1920 183C1907.49 183.043 1895.09 192.838 1884.58 199.109C1880.35 201.632 1874.16 207.083 1869.01 206.782C1865.31 206.565 1862.04 203.091 1858.99 201.284C1851.06 196.596 1843.05 191.948 1835 187.474C1831.58 185.573 1826.26 183.652 1824.6 179.791C1821.83 173.326 1824 161.989 1824 155C1824 149.711 1822.14 139.995 1825.03 135.379C1827.2 131.896 1832.6 129.945 1836 127.873C1845.81 121.89 1856.42 114.607 1867 110.163C1872.53 107.842 1878.38 113.242 1883 115.846C1894.25 122.189 1906.73 132.955 1920 133C1920 128.09 1921.98 117.749 1918.4 113.954C1915.76 111.159 1911.3 109.47 1908 107.579C1900.98 103.555 1894 99.4846 1887 95.4244C1881.92 92.4739 1876.31 90.5935 1876.02 83.9962C1875.52 72.7104 1876 61.2974 1876 50C1876 46.0376 1874.84 39.8607 1877.6 36.6096C1879.92 33.8832 1883.96 32.3374 1887 30.5756C1894 26.5151 1900.98 22.4447 1908 18.4214C1911.38 16.4857 1917.65 14.3331 1919.4 10.6104C1920.78 7.65857 1920 3.18689 1920 0C1913.13 0 1904.35 -1.47461 1898 1.53247C1891.48 4.62305 1885.27 8.83093 1879 12.4214C1876.34 13.9425 1873.18 16.4133 1870 16.4861C1866.74 16.5604 1863.7 13.9532 1861 12.4382C1854.26 8.65515 1847.3 3.36011 1840 0.814819C1835.14 -0.881226 1829.08 0 1824 0C1814.35 0 1804.64 -0.348267 1795 0.0185547C1786.21 0.353027 1777.43 7.58765 1770 11.8503C1767.11 13.5065 1763.46 16.6946 1760 16.7407C1756.8 16.7833 1753.63 13.958 1751 12.4252C1743.74 8.19287 1734.55 0.683105 1726 0.0548096C1712.16 -0.962524 1697.88 0 1684 0L1601 0L1510 0C1494.76 0 1479.21 -0.88269 1464 0.0439453C1455.4 0.567749 1446.33 8.22253 1439 12.4214C1436.34 13.9424 1433.18 16.4133 1430 16.4861C1426.74 16.5604 1423.7 13.9531 1421 12.4382C1414.26 8.65515 1407.3 3.36011 1400 0.814819C1395.14 -0.881104 1389.08 0 1384 0C1374.35 0 1364.64 -0.348267 1355 0.0185547C1346.21 0.353027 1337.43 7.58765 1330 11.8503C1327.11 13.5063 1323.46 16.6946 1320 16.7407C1316.8 16.7833 1313.63 13.958 1311 12.4252C1304.35 8.547 1297.28 3.35474 1290 0.814819C1285.41 -0.786133 1279.79 0 1275 0C1265.34 0 1255.66 -0.160645 1246 0.00463867C1236.66 0.164429 1227.82 7.26697 1219.99 11.8511C1217.05 13.5686 1213.55 16.4927 1210.04 16.7439C1206.73 16.9811 1203.65 14.0076 1200.99 12.4244C1194.04 8.30396 1185.12 1.15454 1177 0.13269C1165.04 -1.37244 1152.06 0 1140 0L1067 0L489 0L332 0C305.93 0 279.025 -1.94226 253.039 0.0548096C245.137 0.662109 235.701 8.38428 229 12.3997C226.38 13.9696 223.2 16.6019 220 16.6019C216.491 16.6019 212.911 13.5211 210 11.8503C202.795 7.71497 194.438 1.12085 186 0.129639C176.252 -1.0155 165.815 0 156 0C150.938 0 144.868 -0.887695 140 0.699097C129.953 3.97388 121.458 14.5428 111 16.368C107.33 17.0084 104.002 14.1239 101.001 12.4382C94.2645 8.65515 87.2978 3.36011 80 0.814819C74.061 -1.25647 66.2224 0 60 0C51.4779 0 40.1484 -1.94678 32 0.699097C26.0006 2.64709 20.5079 7.06177 15 10.0803C10.8477 12.356 4.61526 14.6332 1.6034 18.3896C-1.89723 22.7557 0 32.6989 0 38L0 89C0 94.4976 -2.01798 105.094 1.6034 109.61C4.21414 112.866 9.40972 114.845 13 116.825C20.0858 120.733 27.0225 124.891 34 128.989C37.4268 131.002 42.788 132.884 44.9722 136.379C46.8954 139.456 46 144.534 46 148C46 156.994 46.1651 166.006 45.9954 174.999C45.8651 181.903 41.4409 183.581 36.0008 186.796C27.7096 191.697 19.369 196.513 11 201.281C6.92922 203.6 0.991516 205.884 0.148148 211.04C-0.890971 217.393 0 224.566 0 231L0 272C0 277.441 -2.15031 288.76 1.02778 293.366C3.24595 296.58 8.69543 298.658 12 300.576C20.3204 305.405 28.7045 310.117 37 314.989C41.1769 317.442 47.9649 319.661 48.8519 325.043C50.7773 336.728 49 350.151 49 362C49 366.197 50.0838 371.948 46.6821 375.096C43.7092 377.847 39.4641 379.551 36 381.603C28.0569 386.31 19.9852 390.79 12 395.424C7.63474 397.958 0.582352 400.372 0.058642 406.043C-1.6329 424.359 0 443.599 0 462C0 467.441 -2.15032 478.76 1.02778 483.366C3.24593 486.58 8.69547 488.658 12 490.576C20.3204 495.405 28.7045 500.117 37 504.989C41.1769 507.442 47.9649 509.661 48.8519 515.043C50.7773 526.728 49 540.151 49 552C49 556.197 50.0838 561.948 46.6821 565.096C43.7093 567.847 39.464 569.551 36 571.603C28.0569 576.31 19.9852 580.79 12 585.424C8.14125 587.664 0.992794 590.206 0.148148 595.105C-0.937702 601.403 0 608.613 0 615L0 655C0 661.043 -2.17252 672.385 1.02778 677.671C3.18925 681.242 8.50608 683.293 12 685.281C19.6985 689.66 27.3405 694.13 35 698.576C40.7213 701.896 45.8573 703.686 45.9954 711.001C46.1714 720.327 46 729.672 46 739C46 742.577 46.8042 747.358 44.4861 750.387C42.0342 753.591 37.3823 755.061 34 757.015C26.6671 761.25 19.3617 765.531 12 769.719C8.34915 771.796 2.34161 774.058 0.603395 778.185C-0.818446 781.561 0 786.41 0 790L0 814L0 898L0 1019L0 1047C0.000327181 1052.09 -0.496758 1056.32 4.05864 1059.56C10.8766 1064.4 18.7373 1068.14 26 1072.28C30.1697 1074.66 34.3688 1077.96 39 1079.35C44.4971 1081 51.3118 1080 57 1080C61.8371 1080 67.3915 1080.74 72 1079.01C81.3388 1075.5 90.3231 1068.66 99 1063.72C102.024 1062 105.502 1059.06 109 1058.49C113.361 1057.79 118.418 1062.24 122 1064.28C131.316 1069.58 143.048 1079.66 154 1079.98C162.923 1080.25 175.869 1082.16 184 1078.09C192.539 1073.82 200.697 1068.45 209 1063.72C212.162 1061.92 216.206 1058.4 220 1058.4C224.058 1058.4 228.602 1062.35 232 1064.28C241.786 1069.85 253.454 1079.84 265 1080C338.636 1081 412.356 1080 486 1080L573 1080C587.591 1080 602.435 1080.8 617 1079.96C627.702 1079.34 639.833 1068.94 649 1063.72C652.162 1061.92 656.206 1058.4 660 1058.4C663.794 1058.4 667.838 1061.92 671 1063.72C679.303 1068.45 687.461 1073.82 696 1078.09C702.763 1081.48 713.54 1080.58 720.961 1079.94C725.399 1079.56 729.26 1076.19 733 1073.99C740.957 1069.3 748.99 1064.75 757 1060.15C760.919 1057.9 766.194 1053.17 771 1053.86C774.893 1054.42 778.676 1057.65 782 1059.58C789.985 1064.21 798.059 1068.69 806 1073.4C810.881 1076.29 815.162 1079.89 821.004 1080C862.637 1080.77 904.359 1080 946 1080L1196 1080L1396 1080C1429.28 1080 1462.73 1080.97 1496 1079.98C1507.21 1079.65 1519.46 1069.16 1529 1063.72C1532.16 1061.92 1536.21 1058.4 1540 1058.4C1543.79 1058.4 1547.84 1061.92 1551 1063.72C1559.3 1068.45 1567.46 1073.82 1576 1078.09C1582.45 1081.32 1590.97 1080.05 1598 1080C1604.42 1079.96 1608.62 1076.59 1614 1073.4C1621.61 1068.88 1629.33 1064.55 1637 1060.15C1640.74 1058 1645.5 1053.79 1650 1053.79C1654.21 1053.79 1658.52 1057.56 1662 1059.58C1669.99 1064.21 1678.06 1068.69 1686 1073.4C1689.98 1075.76 1694.32 1079.54 1699.04 1079.94C1706.46 1080.58 1717.24 1081.48 1724 1078.09C1732.54 1073.82 1740.69 1068.44 1749 1063.72C1752.19 1061.91 1756.19 1058.6 1760 1058.51C1763.82 1058.43 1767.83 1061.91 1771 1063.72C1777 1067.14 1783.04 1070.51 1789 1074.01C1792.79 1076.24 1796.56 1079.09 1801 1079.79C1813.75 1081.78 1828.1 1080 1841 1080L1920 1080z"/>
<path style="fill:#dcebf2; stroke:none;" d="M80 0C85.8577 5.93835 94.8284 9.39502 102 13.6041C104.71 15.1945 107.666 17.5609 111 16.9607C114.503 16.33 117.961 13.5842 121 11.8496C127.328 8.23792 133.571 4.42175 140 1C134.538 -1.29224 126.887 0 121 0L80 0M189 0C194.773 5.21729 203.237 8.49988 210 12.4244C212.924 14.121 216.461 17.1636 220 17.1636C222.893 17.1636 225.627 15.0184 228 13.6003C234.359 9.80029 244.916 6.25452 249 0L189 0M1180 0C1185.61 5.68787 1194.15 8.92029 1200.99 13.01C1203.66 14.6128 1206.72 17.4242 1210.04 17.2415C1213.58 17.0466 1217.04 14.1704 1219.99 12.4244C1226.6 8.50037 1233.38 4.90503 1240 1C1234.54 -1.29211 1226.89 0 1221 0L1180 0M1290 0C1295.61 5.68347 1304.16 8.9491 1311 13.0139C1313.65 14.5883 1316.75 17.3536 1320 17.2793C1323.51 17.1991 1327.09 14.1155 1330 12.4244C1336.64 8.57141 1343.39 4.89868 1350 1C1344.54 -1.29211 1336.89 0 1331 0L1290 0M1400 0C1405.86 5.93823 1414.83 9.39514 1422 13.6041C1424.71 15.1946 1427.67 17.5609 1431 16.9607C1434.5 16.3301 1437.96 13.5842 1441 11.8496C1447.33 8.23792 1453.57 4.42175 1460 1C1454.54 -1.29211 1446.89 0 1441 0L1400 0M1730 0C1735.61 5.68347 1744.16 8.94897 1751 13.0139C1753.65 14.5883 1756.75 17.3536 1760 17.2793C1763.51 17.1991 1767.09 14.1156 1770 12.4244C1776.64 8.57129 1783.39 4.8988 1790 1C1784.54 -1.29211 1776.89 0 1771 0L1730 0M1840 0C1845.86 5.93823 1854.83 9.39514 1862 13.6041C1864.71 15.1946 1867.67 17.5609 1871 16.9607C1874.5 16.3301 1877.96 13.5842 1881 11.8496C1887.33 8.23792 1893.57 4.42163 1900 1C1894.54 -1.29211 1886.89 0 1881 0L1840 0z"/>
<path style="fill:#d9e6ec; stroke:none;" d="M163 9.69214C158.731 10.7267 154.763 13.9896 151 16.1497C142.99 20.7478 134.964 25.3116 127 29.9891C123.578 31.999 117.543 34.0277 116.318 38.21C115.196 42.0408 116 47.0372 116 51L116 76C116 79.7893 114.812 86.0938 117.028 89.3904C118.937 92.2311 123.139 93.764 126 95.4244C131.998 98.9055 137.977 102.411 144 105.85C149.888 109.21 159.892 118.031 167 116.308C171.269 115.273 175.237 112.01 179 109.85C187.01 105.252 195.036 100.688 203 96.0108C206.422 94.001 212.457 91.9722 213.682 87.7902C214.804 83.9593 214 78.9628 214 75L214 50C214 46.2104 215.188 39.9065 212.972 36.6096C211.063 33.7688 206.861 32.2361 204 30.5756C198.002 27.0944 192.023 23.5885 186 20.1504C180.112 16.7897 170.108 7.96936 163 9.69214z"/>
<path style="fill:#d8e7ee; stroke:none;" d="M1263 9.69214C1258.73 10.7267 1254.76 13.9897 1251 16.1497C1242.99 20.7479 1234.96 25.3116 1227 29.9891C1223.58 31.9989 1217.54 34.0278 1216.32 38.21C1215.2 42.0406 1216 47.0374 1216 51L1216 76C1216 79.7892 1214.81 86.0939 1217.03 89.3904C1218.94 92.2312 1223.14 93.7639 1226 95.4244C1232 98.9055 1237.98 102.411 1244 105.85C1249.89 109.21 1259.89 118.031 1267 116.308C1271.27 115.273 1275.24 112.01 1279 109.85C1287.01 105.252 1295.04 100.688 1303 96.0108C1306.42 94.001 1312.46 91.9721 1313.68 87.7902C1314.8 83.9592 1314 78.9628 1314 75L1314 50C1314 46.2107 1315.19 39.9062 1312.97 36.6096C1311.06 33.7689 1306.86 32.236 1304 30.5756C1298 27.0944 1292.02 23.5885 1286 20.1504C1280.11 16.7897 1270.11 7.96936 1263 9.69214z"/>
<path style="fill:#d9e6ec; stroke:none;" d="M1813 9.69214C1808.73 10.7267 1804.76 13.9897 1801 16.1497C1792.99 20.7479 1784.96 25.3116 1777 29.9891C1773.58 31.9988 1767.54 34.028 1766.32 38.21C1765.2 42.0408 1766 47.0372 1766 51L1766 76C1766 79.7892 1764.81 86.0939 1767.03 89.3904C1768.94 92.2312 1773.14 93.7639 1776 95.4244C1782 98.9055 1787.98 102.411 1794 105.85C1799.89 109.21 1809.89 118.031 1817 116.308C1821.27 115.273 1825.24 112.01 1829 109.85C1837.01 105.252 1845.04 100.688 1853 96.0108C1856.42 94.001 1862.46 91.9722 1863.68 87.7902C1864.8 83.9592 1864 78.9628 1864 75L1864 50C1864 46.2107 1865.19 39.9064 1862.97 36.6096C1861.06 33.7689 1856.86 32.236 1854 30.5756C1848 27.0944 1842.02 23.5885 1836 20.1504C1830.11 16.7897 1820.11 7.96936 1813 9.69214z"/>
<path style="fill:#b6d2de; stroke:none;" d="M164 10.8627C160.107 11.4231 156.324 14.6465 153 16.5756C145.015 21.21 136.943 25.6897 129 30.3966C125.559 32.4355 119.376 34.532 117.603 38.3789C116.345 41.11 117 45.0736 117 48L117 67C117 72.5118 114.868 83.6904 118.028 88.3904C119.57 90.6842 122.683 91.9568 125 93.2809L140 102C145.671 105.259 151.374 108.462 157 111.799C159.695 113.398 162.688 115.614 166 115.137C169.893 114.577 173.676 111.353 177 109.424C184.985 104.79 193.057 100.31 201 95.6034C204.441 93.5644 210.624 91.4681 212.397 87.6212C213.655 84.8904 213 80.9263 213 78L213 59C213 53.4883 215.132 42.3098 211.972 37.6096C210.43 35.3157 207.317 34.0432 205 32.7191L190 24C184.329 20.7407 178.626 17.5378 173 14.2007C170.305 12.6022 167.312 10.3859 164 10.8627M1264 10.8627C1260.11 11.4231 1256.32 14.6465 1253 16.5756C1245.02 21.2098 1236.94 25.6897 1229 30.3966C1225.56 32.4358 1219.38 34.5317 1217.6 38.3789C1216.34 41.11 1217 45.0735 1217 48L1217 67C1217 72.5118 1214.87 83.6903 1218.03 88.3904C1219.57 90.6842 1222.68 91.9569 1225 93.2809L1240 102C1245.67 105.26 1251.37 108.462 1257 111.799C1259.69 113.398 1262.69 115.614 1266 115.137C1269.89 114.577 1273.68 111.353 1277 109.424C1284.99 104.79 1293.06 100.311 1301 95.6034C1304.44 93.5644 1310.62 91.4681 1312.4 87.6212C1313.66 84.8902 1313 80.9264 1313 78L1313 59C1313 53.4884 1315.13 42.3097 1311.97 37.6096C1310.43 35.3158 1307.32 34.0431 1305 32.7191L1290 24C1284.33 20.7406 1278.63 17.538 1273 14.2007C1270.31 12.6022 1267.31 10.3859 1264 10.8627M1814 10.8627C1810.11 11.4231 1806.32 14.6465 1803 16.5756C1795.02 21.2098 1786.94 25.6897 1779 30.3966C1775.56 32.4358 1769.38 34.5317 1767.6 38.3789C1766.34 41.1101 1767 45.0735 1767 48L1767 67C1767 72.5118 1764.87 83.6902 1768.03 88.3904C1769.57 90.6841 1772.68 91.9569 1775 93.2809L1790 102C1795.67 105.26 1801.37 108.462 1807 111.799C1809.69 113.398 1812.69 115.614 1816 115.137C1819.89 114.577 1823.68 111.353 1827 109.424C1834.99 104.79 1843.06 100.311 1851 95.6034C1854.44 93.5644 1860.62 91.4681 1862.4 87.6212C1863.66 84.8902 1863 80.9264 1863 78L1863 59C1863 53.4884 1865.13 42.3098 1861.97 37.6096C1860.43 35.3158 1857.32 34.0432 1855 32.7191L1840 24C1834.33 20.7406 1828.63 17.538 1823 14.2007C1820.3 12.6021 1817.31 10.3859 1814 10.8627z"/>
<path style="fill:#d9e7ea; stroke:none;" d="M1920 114C1912.05 105.806 1898.84 100.787 1889 95.0108C1885.68 93.0617 1881.14 91.3756 1878.6 88.3904C1874.84 83.9518 1877 72.5251 1877 67L1877 48C1877 45.2579 1876.49 41.7922 1877.6 39.21C1879.35 35.1666 1885.44 33.0793 1889 30.9891C1899.3 24.9409 1909.81 19.234 1920 13C1913.91 12.0048 1905.21 19.4359 1900 22.4214L1885 31.1497C1882.41 32.639 1878.76 34.0391 1877.03 36.6096C1874.94 39.7195 1876 45.4347 1876 49L1876 76C1876 79.717 1875.01 85.1705 1876.6 88.6212C1878.38 92.468 1884.56 94.5645 1888 96.6034C1897.98 102.516 1908.85 110.72 1920 114z"/>
<path style="fill:#dcebf2; stroke:none;" d="M53.1698 13.8071C49.6566 14.6589 46.1263 17.9349 43 19.7191C35.3113 24.1072 27.6333 28.506 20 32.9891C16.7775 34.8817 11.2654 36.7728 9.6034 40.3789C8.23258 43.3533 9 47.8075 9 51L9 75C9 78.338 8.06613 83.4722 10.0278 86.3904C11.7557 88.9609 15.4068 90.361 18 91.8503L36 102.281C40.8951 105.064 50.2368 113.216 56 112.157C59.8345 111.451 63.6614 108.183 67 106.281C74.3544 102.091 81.7183 97.9185 89 93.6034C92.3739 91.6041 97.7189 89.7426 99.9722 86.3904C101.801 83.6699 101 79.1056 101 76L101 51C101 47.6622 101.934 42.5278 99.9722 39.6096C96.4869 34.4244 86.3603 30.7686 81 27.7191C74.6517 24.1077 68.2906 20.5109 62 16.8002C59.3745 15.2515 56.3931 13.0255 53.1698 13.8071M1373.17 13.8071C1369.66 14.6589 1366.13 17.9349 1363 19.7191C1355.31 24.1071 1347.63 28.5061 1340 32.9891C1336.78 34.8816 1331.27 36.7729 1329.6 40.3789C1328.23 43.3533 1329 47.8074 1329 51L1329 75C1329 78.3375 1328.07 83.4724 1330.03 86.3904C1331.76 88.9609 1335.41 90.361 1338 91.8503L1356 102.281C1360.9 105.064 1370.24 113.216 1376 112.157C1379.83 111.451 1383.66 108.183 1387 106.281C1394.35 102.091 1401.72 97.9185 1409 93.6034C1412.37 91.604 1417.72 89.7426 1419.97 86.3904C1421.93 83.4723 1421 78.3377 1421 75L1421 50C1421 46.8944 1421.8 42.3301 1419.97 39.6096C1416.49 34.4246 1406.36 30.7686 1401 27.7191C1394.65 24.1075 1388.29 20.5109 1382 16.8002C1379.37 15.2515 1376.39 13.0256 1373.17 13.8071z"/>
<path style="fill:#b6d2de; stroke:none;" d="M1919 13C1909.47 18.8315 1899.6 24.0835 1890 29.7993C1886.38 31.9576 1880.44 34.015 1878.03 37.6096C1874.87 42.3098 1877 53.4883 1877 59L1877 78C1877 80.9264 1876.34 84.8902 1877.6 87.6212C1879.38 91.468 1885.56 93.5645 1889 95.6034C1899.06 101.564 1909.26 108.372 1920 113L1920 44C1920 34.9404 1922.51 21.3574 1919 13z"/>
<path style="fill:#d9e9f0; stroke:none;" d="M108 104.692C103.731 105.727 99.7629 108.99 96 111.15C87.9895 115.748 79.9642 120.312 72 124.989C68.578 126.999 62.543 129.028 61.3179 133.21C60.1957 137.041 61 142.037 61 146L61 171C61 174.789 59.8117 181.094 62.0278 184.39C63.9374 187.231 68.1391 188.764 71 190.424C76.9977 193.906 82.9767 197.411 89 200.85C94.8878 204.21 104.892 213.031 112 211.308C116.269 210.273 120.237 207.01 124 204.85C132.01 200.252 140.036 195.688 148 191.011C151.422 189.001 157.457 186.972 158.682 182.79C159.804 178.959 159 173.963 159 170L159 145C159 141.211 160.188 134.906 157.972 131.61C156.063 128.769 151.861 127.236 149 125.576C143.002 122.094 137.023 118.589 131 115.15C125.112 111.79 115.108 102.969 108 104.692z"/>
<path style="fill:#b6d2de; stroke:none;" d="M109 105.863C105.107 106.423 101.324 109.647 98 111.576C90.0149 116.21 81.9431 120.69 74 125.397C70.5592 127.436 64.3765 129.532 62.6034 133.379C61.3447 136.11 62 140.074 62 143L62 162C62 167.512 59.8684 178.69 63.0278 183.39C64.5697 185.684 67.6826 186.957 70 188.281L85 197C90.6714 200.259 96.3739 203.462 102 206.799C104.695 208.398 107.688 210.614 111 210.137C114.893 209.577 118.676 206.353 122 204.424C129.985 199.79 138.057 195.31 146 190.603C149.441 188.564 155.624 186.468 157.397 182.621C158.655 179.89 158 175.926 158 173L158 154C158 148.488 160.132 137.31 156.972 132.61C155.43 130.316 152.317 129.043 150 127.719L135 119C129.329 115.741 123.626 112.538 118 109.201C115.305 107.602 112.312 105.386 109 105.863z"/>
<path style="fill:#dcebf2; stroke:none;" d="M1759 108.924C1755.17 109.526 1751.31 112.832 1748 114.719C1739.95 119.303 1731.42 123.391 1723.71 128.509C1720.85 130.411 1716.12 132.087 1714.6 135.379C1713.46 137.862 1714 141.343 1714 144L1714 162C1714 167.225 1712.16 176.823 1714.99 181.387C1716.69 184.129 1720.35 185.375 1723.01 186.9C1727.7 189.579 1732.3 192.35 1737 195.004C1742.36 198.027 1747.7 201.08 1753 204.2C1755.42 205.623 1758.04 207.542 1761 207.076C1764.83 206.474 1768.69 203.168 1772 201.281C1779.7 196.893 1787.31 192.358 1795 187.964C1798.13 186.18 1803.79 184.038 1805.4 180.61C1806.55 178.146 1806 174.643 1806 172L1806 155C1806 149.7 1808.02 139.139 1804.97 134.61C1801.3 129.151 1790.75 125.527 1785.17 122.178C1779.52 118.789 1773.67 115.747 1768 112.397C1765.33 110.818 1762.3 108.405 1759 108.924M1920 183L1920 133C1907.12 132.856 1893.94 121.47 1883 115.28C1878.37 112.66 1872.57 107.277 1867 109.576C1856.09 114.084 1845.09 121.716 1835 127.873C1831.81 129.819 1826.26 131.792 1824.6 135.379C1823.23 138.353 1824 142.807 1824 146L1824 170C1824 173.361 1823.08 178.452 1825.03 181.401C1826.96 184.329 1831.05 185.837 1834 187.474C1839.71 190.65 1845.31 194.049 1851 197.281C1855.99 200.119 1863.24 206.832 1869.01 207.243C1874.23 207.614 1880.33 202.235 1884.58 199.64C1894.64 193.482 1907.99 183.134 1920 183M0 109L0 208C11.1244 202.8 21.3682 195.553 32.0895 189.576C35.8875 187.458 43.4626 184.74 45.3966 180.61C46.5508 178.146 45.9998 174.643 46 172L46 155C46 149.912 47.9021 139.968 44.9722 135.61C42.3987 131.781 35.8715 129.506 32 127.201C21.473 120.931 10.8417 114.711 0 109M54 203.924C50.1666 204.526 46.3125 207.832 43 209.719C35.3082 214.102 27.6332 218.506 20 222.989C16.7774 224.882 11.2654 226.773 9.6034 230.379C8.45915 232.862 9.00017 236.343 9 239L9 256C9 261.301 6.98278 271.861 10.0278 276.39C11.5696 278.684 14.6826 279.957 17 281.281C22.0362 284.158 26.9128 287.292 32 290.08C37.3834 293.031 42.7098 296.086 48 299.2C50.4184 300.623 53.0368 302.542 56 302.076C59.4596 301.533 62.9919 298.676 66 296.989C74.0691 292.465 82.0222 287.696 90 283.011C93.2225 281.118 98.7346 279.227 100.397 275.621C101.541 273.138 101 269.657 101 267L101 250C101 244.7 103.017 234.139 99.9722 229.61C96.126 223.888 84.883 219.951 79 216.579C73.6659 213.521 68.2941 210.523 63 207.397C60.3262 205.818 57.2988 203.405 54 203.924M164 203.924C160.167 204.526 156.313 207.832 153 209.719C145.308 214.102 137.633 218.506 130 222.989C126.777 224.882 121.265 226.773 119.603 230.379C118.459 232.862 119 236.343 119 239L119 256C119 261.343 116.996 271.815 120.028 276.401C123.83 282.154 135.101 286.039 141 289.421C146.334 292.479 151.706 295.477 157 298.603C159.674 300.182 162.701 302.595 166 302.076C169.833 301.474 173.688 298.168 177 296.281C184.692 291.898 192.367 287.494 200 283.011C203.223 281.118 208.735 279.227 210.397 275.621C211.541 273.138 211 269.657 211 267L211 250C211 244.7 213.017 234.139 209.972 229.61C206.153 223.928 194.872 219.945 189 216.579C183.666 213.521 178.294 210.523 173 207.397C170.326 205.818 167.299 203.405 164 203.924M1919 205C1911.74 212.854 1899.2 217.584 1890 222.989C1886.88 224.822 1882.11 226.509 1880.03 229.61C1877.1 233.968 1879 243.912 1879 249L1879 267C1879 269.664 1878.46 273.132 1879.6 275.624C1881.43 279.615 1887.45 281.555 1891 283.614C1900.55 289.15 1910 295.332 1920 300L1920 234C1920 225.466 1922.31 212.879 1919 205z"/>
<path style="fill:#dae7f0; stroke:none;" d="M0 294C8.98646 303.268 23.9167 308.829 35 315.397C38.5983 317.529 43.6481 319.371 46.3966 322.61C50.1637 327.048 48 338.475 48 344L48 363C47.9998 365.742 48.5092 369.208 47.3966 371.79C45.5513 376.074 38.7723 378.368 35 380.603C23.3825 387.488 11.519 393.949 0 401C6.53505 402.068 16.3723 393.48 22 390.281L40 379.85C42.5932 378.361 46.2444 376.961 47.9722 374.39C50.0627 371.281 49 365.565 49 362L49 335C49 331.283 49.9869 325.829 48.3966 322.379C46.5189 318.305 39.6536 315.975 36 313.799C24.8851 307.18 12.4097 297.65 0 294z"/>
<path style="fill:#d9e8ef; stroke:none;" d="M1920 376C1915.3 374.104 1911.07 377.071 1907 379.424L1881 394.424C1877.23 396.611 1872.65 400.71 1868 399.373C1864.13 398.259 1860.47 395.261 1857 393.281C1849.31 388.898 1841.63 384.494 1834 380.011C1830.44 377.921 1824.35 375.833 1822.6 371.79C1821.49 369.208 1822 365.742 1822 363L1822 344C1822 338.489 1820.03 328.179 1823.03 323.379C1825.37 319.634 1831.33 317.573 1835 315.397C1842.28 311.082 1849.65 306.909 1857 302.719C1860.48 300.739 1864.13 297.741 1868 296.627C1873.12 295.152 1878.82 300.335 1883 302.719C1893.71 308.819 1907.44 320.629 1920 321C1907.83 314.744 1895.91 307.989 1884 301.15C1879.72 298.692 1874.25 293.842 1869 294.498C1864.71 295.035 1860.64 298.463 1857 300.576C1849.02 305.21 1840.94 309.69 1833 314.397C1829.56 316.436 1823.38 318.532 1821.6 322.379C1820.01 325.83 1821 331.283 1821 335L1821 362C1821 365.565 1819.94 371.281 1822.03 374.39C1824.28 377.743 1829.63 379.604 1833 381.603C1840.94 386.31 1849.01 390.79 1857 395.424C1860.64 397.537 1864.71 400.965 1869 401.502C1874.25 402.158 1879.72 397.308 1884 394.85C1890.66 391.026 1897.39 387.312 1904 383.397C1909.09 380.381 1914.04 376.78 1920 376z"/>
<path style="fill:#b6d2de; stroke:none;" d="M0 295L0 401C12.0787 395.795 23.6915 387.935 35 381.201C38.6536 379.025 45.5188 376.695 47.3966 372.621C48.6552 369.89 48 365.926 48 363L48 344C48 338.488 50.1316 327.31 46.9722 322.61C44.3987 318.781 37.8715 316.506 34 314.201C23.0204 307.662 11.7263 300.053 0 295M1920 375L1920 321C1913.56 320.572 1908.43 316.819 1903 313.603C1896.39 309.687 1889.66 305.974 1883 302.15C1878.33 299.467 1872.69 294.26 1867 296.457C1856.02 300.697 1845.12 308.771 1835 314.799C1831.38 316.958 1825.44 319.015 1823.03 322.61C1819.87 327.31 1822 338.488 1822 344L1822 363C1822 365.926 1821.34 369.89 1822.6 372.621C1824.38 376.468 1830.56 378.564 1834 380.603C1841.94 385.31 1850.01 389.79 1858 394.424C1861.32 396.353 1865.11 399.577 1869 400.137C1873.81 400.829 1879.08 396.1 1883 393.85C1889.66 390.026 1896.39 386.312 1903 382.397C1908.43 379.181 1913.56 375.428 1920 375z"/>
<path style="fill:#dcebf2; stroke:none;" d="M54 393.924C50.1666 394.526 46.3126 397.832 43 399.719C35.3029 404.105 27.6333 408.497 20 412.989C16.7774 414.886 11.2665 416.77 9.6034 420.379C8.45909 422.862 9.00017 426.343 9 429L9 446C9 451.3 6.98279 461.861 10.0278 466.39C13.847 472.072 25.1283 476.055 31 479.421C36.7446 482.715 42.4068 486.168 48.1698 489.424C50.5333 490.759 53.155 492.525 56 492.076C59.8341 491.472 63.6865 488.169 67 486.281C74.5401 481.985 82.0228 477.642 89.4244 473.12C92.8242 471.042 98.6093 469.499 100.397 465.621C101.541 463.138 101 459.657 101 457L101 440C101 434.7 103.017 424.139 99.9722 419.61C96.1531 413.928 84.8717 409.945 79 406.579L62 396.775C59.5593 395.386 56.968 393.457 54 393.924M1919 395C1910 400.937 1900.33 405.976 1891 411.386C1887.53 413.397 1882.32 415.126 1880.03 418.599C1877.11 423.011 1879 432.872 1879 438L1879 456C1879 458.657 1878.46 462.138 1879.6 464.621C1881.27 468.227 1886.78 470.118 1890 472.011C1899.84 477.79 1909.66 484.172 1920 489L1920 424C1920 415.466 1922.31 402.879 1919 395z"/>
<path style="fill:#dae7f0; stroke:none;" d="M0 484C8.98645 493.268 23.9167 498.829 35 505.397C38.5983 507.529 43.6481 509.371 46.3966 512.61C50.1637 517.048 48 528.475 48 534L48 553C47.9998 555.742 48.5092 559.208 47.3966 561.79C45.5513 566.074 38.7723 568.368 35 570.603C23.3826 577.488 11.519 583.949 0 591C6.53512 592.068 16.3722 583.48 22 580.281L40 569.85C42.5932 568.361 46.2443 566.961 47.9722 564.39C50.0626 561.281 49 555.565 49 552L49 525C49 521.283 49.987 515.829 48.3966 512.379C46.5188 508.305 39.6536 505.975 36 503.799C24.8851 497.18 12.4098 487.65 0 484z"/>
<path style="fill:#b6d2de; stroke:none;" d="M0 485L0 591C12.0787 585.795 23.6915 577.935 35 571.201C38.6536 569.025 45.5188 566.695 47.3966 562.621C48.6552 559.89 48 555.926 48 553L48 534C48 528.488 50.1317 517.31 46.9722 512.61C44.3987 508.781 37.8715 506.506 34 504.201C23.0204 497.662 11.7263 490.053 0 485z"/>
<path style="fill:#d8e7ef; stroke:none;" d="M108 673.692C103.731 674.727 99.7629 677.99 96 680.15C87.9895 684.748 79.9642 689.312 72 693.989C68.578 695.999 62.543 698.028 61.3179 702.21C60.1957 706.041 61 711.037 61 715L61 740C61 743.789 59.8118 750.094 62.0278 753.39C63.9373 756.231 68.1392 757.764 71 759.424C76.9977 762.906 82.9767 766.411 89 769.85C94.8878 773.21 104.892 782.031 112 780.308C116.269 779.273 120.237 776.01 124 773.85C132.01 769.252 140.036 764.688 148 760.011C151.422 758.001 157.457 755.972 158.682 751.79C159.804 747.959 159 742.963 159 739L159 714C159 710.211 160.188 703.906 157.972 700.61C156.063 697.769 151.861 696.236 149 694.576C143.002 691.094 137.023 687.589 131 684.15C125.112 680.79 115.108 671.969 108 673.692z"/>
<path style="fill:#b6d2de; stroke:none;" d="M109 674.863C105.107 675.423 101.324 678.647 98 680.576C90.0148 685.21 81.9432 689.69 74 694.397C70.5591 696.436 64.3765 698.532 62.6034 702.379C61.3447 705.11 62 709.074 62 712L62 731C62 736.512 59.8684 747.69 63.0278 752.39C64.5696 754.684 67.6826 755.957 70 757.281L85 766C90.6714 769.259 96.3738 772.462 102 775.799C104.695 777.398 107.688 779.614 111 779.137C114.893 778.577 118.676 775.353 122 773.424C129.985 768.79 138.057 764.31 146 759.603C149.441 757.564 155.624 755.468 157.397 751.621C158.655 748.89 158 744.926 158 742L158 723C158 717.488 160.132 706.31 156.972 701.61C155.43 699.316 152.317 698.043 150 696.719L135 688C129.329 684.741 123.626 681.538 118 678.201C115.305 676.602 112.312 674.386 109 674.863z"/>
<path style="fill:#dcebf2; stroke:none;" d="M1920 752L1920 702C1907.12 701.856 1893.92 690.498 1883 684.281C1878.25 681.576 1872.73 676.133 1867 678.573C1856.42 683.074 1845.84 690.294 1836 696.258C1832.66 698.283 1827.26 700.286 1825.03 703.61C1821.98 708.139 1824 718.7 1824 724L1824 741C1824 743.656 1823.46 747.138 1824.6 749.621C1826.27 753.227 1831.78 755.118 1835 757.011C1842.98 761.695 1850.99 766.308 1859.01 770.9C1862.11 772.67 1865.33 775.818 1869 776.207C1873.71 776.705 1879.12 771.928 1883 769.719C1893.93 763.503 1907.12 752.144 1920 752M0 678L0 777C11.329 771.704 22.2407 764.594 33 758.201C36.6273 756.045 42.696 754.12 45.0116 750.387C47.843 745.823 46 736.225 46 731L46 714C45.9998 711.343 46.5409 707.862 45.3966 705.379C43.5188 701.305 36.6536 698.975 33 696.799C22.2495 690.397 11.3261 683.294 0 678z"/>
<path style="fill:#d9e6ec; stroke:none;" d="M1813 768.692C1808.73 769.727 1804.76 772.99 1801 775.15C1792.99 779.748 1784.96 784.312 1777 788.989C1773.58 790.999 1767.54 793.028 1766.32 797.21C1765.2 801.041 1766 806.037 1766 810L1766 835C1766 838.789 1764.81 845.094 1767.03 848.39C1768.94 851.231 1773.14 852.764 1776 854.424C1782 857.906 1787.98 861.411 1794 864.85C1799.89 868.21 1809.89 877.031 1817 875.308C1821.27 874.273 1825.24 871.01 1829 868.85C1837.01 864.252 1845.04 859.688 1853 855.011C1856.42 853.001 1862.46 850.972 1863.68 846.79C1864.8 842.959 1864 837.963 1864 834L1864 809C1864 805.211 1865.19 798.906 1862.97 795.61C1861.06 792.769 1856.86 791.236 1854 789.576C1848 786.095 1842.02 782.589 1836 779.15C1830.11 775.79 1820.11 766.969 1813 768.692z"/>
<path style="fill:#b6d2de; stroke:none;" d="M1814 769.863C1810.11 770.423 1806.32 773.647 1803 775.576C1795.01 780.21 1786.94 784.69 1779 789.397C1775.56 791.436 1769.38 793.532 1767.6 797.379C1766.34 800.11 1767 804.074 1767 807L1767 826C1767 831.512 1764.87 842.69 1768.03 847.39C1769.57 849.684 1772.68 850.957 1775 852.281L1790 861C1795.67 864.259 1801.37 867.462 1807 870.799C1809.69 872.398 1812.69 874.614 1816 874.137C1819.89 873.577 1823.68 870.353 1827 868.424C1834.99 863.79 1843.06 859.31 1851 854.603C1854.44 852.564 1860.62 850.468 1862.4 846.621C1863.66 843.89 1863 839.926 1863 837L1863 818C1863 812.488 1865.13 801.31 1861.97 796.61C1860.43 794.316 1857.32 793.043 1855 791.719L1840 783C1834.33 779.741 1828.63 776.538 1823 773.201C1820.3 771.602 1817.31 769.386 1814 769.863z"/>
<path style="fill:#d9e7ea; stroke:none;" d="M1920 873C1912.05 864.806 1898.83 859.787 1889 854.011C1885.68 852.062 1881.14 850.376 1878.6 847.39C1874.84 842.952 1877 831.525 1877 826L1877 807C1877 804.258 1876.49 800.792 1877.6 798.21C1879.35 794.166 1885.44 792.079 1889 789.989C1899.3 783.941 1909.81 778.234 1920 772C1913.91 771.005 1905.21 778.436 1900 781.421L1885 790.15C1882.41 791.639 1878.76 793.039 1877.03 795.61C1874.94 798.719 1876 804.435 1876 808L1876 835C1876 838.717 1875.01 844.171 1876.6 847.621C1878.38 851.468 1884.56 853.564 1888 855.603C1897.98 861.516 1908.85 869.72 1920 873z"/>
<path style="fill:#dcebf2; stroke:none;" d="M54.0895 772.782C50.5556 773.118 46.9835 776.429 43.9992 778.15C35.9976 782.762 27.964 787.312 20 791.989C16.7774 793.882 11.2655 795.773 9.6034 799.379C8.45906 801.862 9.00017 805.343 9 808L9 825C9 830.3 6.98279 840.861 10.0278 845.39C11.5696 847.684 14.6826 848.957 17 850.281L32 859C37.3342 862.066 42.6979 865.079 48 868.2C50.4182 869.623 53.037 871.542 56 871.076C59.8334 870.474 63.6874 867.168 67 865.281C74.697 860.895 82.3878 856.539 90 852.014C93.2216 850.099 98.7292 848.239 100.397 844.621C101.541 842.138 101 838.657 101 836L101 819C101 813.7 103.017 803.139 99.9722 798.61C98.0539 795.756 93.8896 794.302 91 792.691C85.5668 789.662 80.5318 786.011 75 783.15C69.4726 780.292 60.472 772.174 54.0895 772.782M164 772.924C160.166 773.528 156.313 776.831 153 778.719C145.308 783.102 137.633 787.506 130 791.989C126.777 793.882 121.265 795.773 119.603 799.379C118.459 801.862 119 805.343 119 808L119 825C119 830.343 116.996 840.815 120.028 845.401C123.83 851.154 135.101 855.039 141 858.421C146.334 861.479 151.706 864.477 157 867.603C159.674 869.182 162.701 871.595 166 871.076C169.833 870.474 173.687 867.168 177 865.281C184.692 860.898 192.367 856.494 200 852.011C203.223 850.118 208.735 848.227 210.397 844.621C211.541 842.138 211 838.657 211 836L211 819C211 813.7 213.017 803.139 209.972 798.61C206.153 792.928 194.872 788.945 189 785.579C183.307 782.315 177.772 778.716 172 775.604C169.577 774.298 166.883 772.469 164 772.924z"/>
<path style="fill:#b6d2de; stroke:none;" d="M1919 772C1909.47 777.832 1899.6 783.083 1890 788.799C1886.38 790.958 1880.44 793.015 1878.03 796.61C1874.87 801.31 1877 812.488 1877 818L1877 837C1877 839.927 1876.34 843.89 1877.6 846.621C1879.38 850.468 1885.56 852.564 1889 854.603C1899.06 860.564 1909.26 867.372 1920 872L1920 803C1920 793.94 1922.51 780.357 1919 772z"/>
<path style="fill:#d8e7ee; stroke:none;" d="M108 863.692C103.731 864.727 99.7629 867.99 96 870.15C87.9895 874.748 79.9642 879.312 72 883.989C68.5779 885.999 62.543 888.028 61.3179 892.21C60.1957 896.041 61 901.037 61 905L61 930C61 933.789 59.8118 940.094 62.0278 943.39C63.9373 946.231 68.1392 947.764 71 949.424C76.9977 952.906 82.9767 956.411 89 959.85C94.8878 963.21 104.892 972.031 112 970.308C116.269 969.273 120.237 966.01 124 963.85C132.01 959.252 140.036 954.688 148 950.011C151.422 948.001 157.457 945.972 158.682 941.79C159.804 937.959 159 932.963 159 929L159 904C159 900.211 160.188 893.906 157.972 890.61C156.063 887.769 151.861 886.236 149 884.576C143.002 881.094 137.023 877.589 131 874.15C125.112 870.79 115.108 861.969 108 863.692z"/>
<path style="fill:#b6d2de; stroke:none;" d="M109 864.863C105.107 865.423 101.324 868.647 98 870.576C90.0148 875.21 81.9431 879.69 74 884.397C70.5591 886.436 64.3765 888.532 62.6034 892.379C61.3447 895.11 62 899.074 62 902L62 921C62 926.512 59.8684 937.69 63.0278 942.39C64.5696 944.684 67.6826 945.957 70 947.281L85 956C90.6714 959.259 96.3738 962.462 102 965.799C104.695 967.398 107.688 969.614 111 969.137C114.893 968.577 118.676 965.353 122 963.424C129.985 958.79 138.057 954.31 146 949.603C149.441 947.564 155.624 945.468 157.397 941.621C158.655 938.89 158 934.926 158 932L158 913C158 907.488 160.132 896.31 156.972 891.61C155.43 889.316 152.317 888.043 150 886.719L135 878C129.329 874.741 123.626 871.538 118 868.201C115.305 866.602 112.312 864.386 109 864.863z"/>
<path style="fill:#dcebf2; stroke:none;" d="M266 892C254.559 889.382 243.174 880.068 233 874.281C229.317 872.186 224.388 867.864 220 867.833C216.43 867.808 212.903 870.734 210 872.495C205.007 875.526 199.723 877.93 194.83 881.103C189.245 884.726 178.778 888.03 175.028 893.61C171.983 898.139 174 908.7 174 914L174 931C174 933.637 173.451 937.125 174.6 939.585C176.181 942.974 181.951 945.197 185.004 947.011C192.944 951.728 200.991 956.253 209 960.85C212.182 962.677 216.169 966.164 220 966.164C226.403 966.164 235.519 958.279 241 955.15C246.977 951.739 252.961 948.326 258.83 944.731C261.264 943.24 264.813 941.73 265.683 938.776C266.974 934.393 266 928.543 266 924L266 892M1649 867.924C1645.16 868.527 1641.32 871.834 1638 873.719C1630.3 878.096 1622.64 882.503 1615 886.989C1611.78 888.882 1606.27 890.773 1604.6 894.379C1603.46 896.862 1604 900.343 1604 903L1604 920C1604 925.3 1601.98 935.861 1605.03 940.39C1608.85 946.072 1620.13 950.055 1626 953.421C1631.33 956.479 1636.71 959.477 1642 962.603C1644.67 964.182 1647.7 966.595 1651 966.076C1654.83 965.474 1658.69 962.168 1662 960.281C1669.69 955.898 1677.37 951.494 1685 947.011C1688.22 945.118 1693.73 943.227 1695.4 939.621C1696.54 937.138 1696 933.657 1696 931L1696 914C1696 908.689 1698.01 898.153 1694.97 893.609C1691.02 887.696 1680.02 884.024 1674 880.579C1668.66 877.526 1663.29 874.523 1658 871.397C1655.33 869.818 1652.3 867.405 1649 867.924M1759 867.924C1755.17 868.526 1751.31 871.832 1748 873.719C1740.31 878.102 1732.63 882.506 1725 886.989C1721.78 888.882 1716.27 890.773 1714.6 894.379C1713.46 896.862 1714 900.343 1714 903L1714 920C1714 925.3 1711.98 935.861 1715.03 940.39C1718.85 946.072 1730.13 950.055 1736 953.421C1741.33 956.479 1746.71 959.477 1752 962.603C1754.67 964.182 1757.7 966.595 1761 966.076C1764.83 965.474 1768.69 962.168 1772 960.281C1779.69 955.898 1787.37 951.494 1795 947.011C1798.22 945.118 1803.73 943.227 1805.4 939.621C1806.54 937.138 1806 933.657 1806 931L1806 914C1806 908.7 1808.02 898.139 1804.97 893.61C1801.15 887.928 1789.87 883.945 1784 880.579C1778.67 877.521 1773.29 874.523 1768 871.397C1765.33 869.818 1762.3 867.405 1759 867.924z"/>
<path style="fill:#d8e7ec; stroke:none;" d="M53 958.692C48.7314 959.727 44.7629 962.99 41 965.15C32.9895 969.748 24.9642 974.312 17 978.989C13.578 980.999 7.54299 983.028 6.3179 987.21C5.19573 991.041 6 996.037 6 1000L6 1025C6 1028.79 4.81176 1035.09 7.02778 1038.39C8.9373 1041.23 13.1392 1042.76 16 1044.42C21.9977 1047.91 27.9767 1051.41 34 1054.85C39.8878 1058.21 49.8916 1067.03 57 1065.31C61.2686 1064.27 65.2371 1061.01 69 1058.85C77.0105 1054.25 85.0358 1049.69 93 1045.01C96.422 1043 102.457 1040.97 103.682 1036.79C104.804 1032.96 104 1027.96 104 1024L104 999C104 995.211 105.188 988.906 102.972 985.61C101.063 982.769 96.8608 981.236 94 979.576C88.0023 976.094 82.0233 972.589 76 969.15C70.1122 965.79 60.1084 956.969 53 958.692z"/>
<path style="fill:#dbe7ed; stroke:none;" d="M1703 958.692C1698.73 959.727 1694.76 962.99 1691 965.15C1682.99 969.748 1674.96 974.312 1667 978.989C1663.58 980.999 1657.54 983.028 1656.32 987.21C1655.2 991.041 1656 996.037 1656 1000L1656 1025C1656 1028.79 1654.81 1035.09 1657.03 1038.39C1658.94 1041.23 1663.14 1042.76 1666 1044.42C1672 1047.91 1677.98 1051.41 1684 1054.85C1689.89 1058.21 1699.89 1067.03 1707 1065.31C1711.27 1064.27 1715.24 1061.01 1719 1058.85C1727.01 1054.25 1735.04 1049.69 1743 1045.01C1746.42 1043 1752.46 1040.97 1753.68 1036.79C1754.8 1032.96 1754 1027.96 1754 1024L1754 999C1754 995.211 1755.19 988.906 1752.97 985.61C1751.06 982.769 1746.86 981.236 1744 979.576C1738 976.095 1732.02 972.588 1726 969.15C1720.11 965.79 1710.11 956.969 1703 958.692z"/>
<path style="fill:#b6d2de; stroke:none;" d="M54 959.863C50.1073 960.423 46.3237 963.647 43 965.576C35.0148 970.21 26.9431 974.69 19 979.397C15.5591 981.436 9.37647 983.532 7.60339 987.379C6.34473 990.11 7 994.074 7 997L7 1016C7 1021.51 4.86836 1032.69 8.02778 1037.39C9.56961 1039.68 12.6826 1040.96 15 1042.28L30 1051C35.6714 1054.26 41.3738 1057.46 47 1060.8C49.6948 1062.4 52.6881 1064.61 56 1064.14C59.8927 1063.58 63.6763 1060.35 67 1058.42C74.9852 1053.79 83.0569 1049.31 91 1044.6C94.4409 1042.56 100.624 1040.47 102.397 1036.62C103.655 1033.89 103 1029.93 103 1027L103 1008C103 1002.49 105.132 991.31 101.972 986.61C100.43 984.316 97.3174 983.043 95 981.719L80 973C74.3286 969.741 68.6262 966.538 63 963.201C60.3052 961.602 57.3119 959.386 54 959.863M1704 959.863C1700.11 960.423 1696.32 963.647 1693 965.576C1685.01 970.21 1676.94 974.69 1669 979.397C1665.56 981.436 1659.38 983.532 1657.6 987.379C1656.34 990.11 1657 994.074 1657 997L1657 1016C1657 1021.51 1654.87 1032.69 1658.03 1037.39C1659.57 1039.68 1662.68 1040.96 1665 1042.28L1680 1051C1685.67 1054.26 1691.37 1057.46 1697 1060.8C1699.69 1062.4 1702.69 1064.61 1706 1064.14C1709.89 1063.58 1713.68 1060.35 1717 1058.42C1724.99 1053.79 1733.06 1049.31 1741 1044.6C1744.44 1042.56 1750.62 1040.47 1752.4 1036.62C1753.66 1033.89 1753 1029.93 1753 1027L1753 1008C1753 1002.49 1755.13 991.31 1751.97 986.61C1750.43 984.316 1747.32 983.043 1745 981.719L1730 973C1724.33 969.741 1718.63 966.538 1713 963.201C1710.31 961.602 1707.31 959.386 1704 959.863z"/>
<path style="fill:#dcebf2; stroke:none;" d="M164 962.924C160.166 963.526 156.313 966.832 153 968.719C145.303 973.104 137.639 977.502 130 981.989C126.777 983.882 121.265 985.773 119.603 989.379C118.459 991.862 119 995.343 119 998L119 1015C119 1020.3 116.983 1030.86 120.028 1035.39C123.697 1040.85 134.25 1044.47 139.83 1047.82C145.478 1051.21 151.326 1054.25 157 1057.6C159.674 1059.18 162.701 1061.59 166 1061.08C169.833 1060.47 173.688 1057.17 177 1055.28C184.679 1050.9 192.29 1046.41 200 1042.09C203.274 1040.26 208.727 1038.25 210.397 1034.62C211.54 1032.14 211 1028.66 211 1026L211 1009C211 1003.69 213.014 993.153 209.972 988.609C205.925 982.562 194.226 978.634 188 975.139C182.62 972.119 177.317 968.93 172 965.8C169.582 964.377 166.963 962.458 164 962.924M714 962.923C710.158 963.547 706.324 966.825 703 968.719C695.322 973.094 687.707 977.588 680 981.909C676.726 983.744 671.273 985.751 669.603 989.379C668.46 991.863 669 995.342 669 998L669 1015C669 1020.31 666.986 1030.85 670.028 1035.39C673.902 1041.18 685.055 1045.01 691 1048.42C696.334 1051.48 701.706 1054.48 707 1057.6C709.662 1059.18 712.712 1061.61 716 1061.07C719.512 1060.5 722.926 1057.45 726 1055.77C734.082 1051.35 742.057 1046.68 750 1042.01C753.223 1040.12 758.735 1038.23 760.397 1034.62C761.541 1032.14 761 1028.66 761 1026L761 1009C761 1003.7 763.017 993.139 759.972 988.61C756.303 983.151 745.75 979.527 740.17 976.178C736.177 973.782 731.911 971.783 728.089 969.115C724.295 966.466 719.029 962.106 714 962.923M824 962.924C820.166 963.528 816.313 966.831 813 968.719C805.308 973.102 797.633 977.506 790 981.989C786.777 983.882 781.266 985.773 779.603 989.379C778.459 991.862 779 995.343 779 998L779 1015C779 1020.3 776.983 1030.86 780.028 1035.39C783.847 1041.07 795.128 1045.06 801 1048.42C806.334 1051.48 811.706 1054.48 817 1057.6C819.682 1059.19 822.693 1061.58 826 1061.08C830.51 1060.39 835.202 1056.56 839 1054.23C845.893 1049.99 853.022 1046.11 860 1042.01C863.222 1040.12 868.735 1038.23 870.397 1034.62C871.541 1032.14 871 1028.66 871 1026L871 1009C871 1003.7 873.017 993.139 869.972 988.61C866.153 982.928 854.872 978.945 849 975.579C843.255 972.285 837.593 968.832 831.83 965.576C829.467 964.241 826.845 962.475 824 962.924M1594 962.923C1590.16 963.547 1586.32 966.825 1583 968.719C1575.32 973.094 1567.71 977.588 1560 981.909C1556.73 983.744 1551.27 985.751 1549.6 989.379C1548.46 991.863 1549 995.342 1549 998L1549 1015C1549 1020.31 1546.99 1030.85 1550.03 1035.39C1553.9 1041.18 1565.05 1045.01 1571 1048.42C1576.33 1051.48 1581.71 1054.48 1587 1057.6C1589.66 1059.18 1592.71 1061.61 1596 1061.07C1599.51 1060.5 1602.93 1057.45 1606 1055.77C1614.08 1051.35 1622.06 1046.68 1630 1042.01C1633.22 1040.12 1638.73 1038.23 1640.4 1034.62C1641.54 1032.14 1641 1028.66 1641 1026L1641 1009C1641 1003.7 1643.02 993.139 1639.97 988.61C1636.3 983.151 1625.75 979.527 1620.17 976.178C1616.18 973.782 1611.91 971.783 1608.09 969.115C1604.3 966.466 1599.03 962.106 1594 962.923M1919 965C1909.99 970.94 1900.28 975.895 1891 981.397C1887.63 983.396 1882.28 985.257 1880.03 988.61C1877.1 992.968 1879 1002.91 1879 1008L1879 1026C1879 1028.66 1878.46 1032.14 1879.6 1034.62C1881.27 1038.23 1886.78 1040.12 1890 1042.01C1899.85 1047.8 1909.64 1054.16 1920 1059L1920 994C1920 985.466 1922.31 972.879 1919 965z"/>
<path style="fill:#d9e8ed; stroke:none;" d="M725 1080C735.855 1074.28 746.339 1067.79 757 1061.72C760.704 1059.61 765.564 1055.3 770 1055.3C774.436 1055.3 779.296 1059.61 783 1061.72C793.661 1067.79 804.145 1074.28 815 1080C812.804 1076.13 808.764 1074.44 805 1072.2C797.071 1067.48 788.94 1063.1 781 1058.4C777.47 1056.3 773.36 1052.95 769 1053.5C765.387 1053.95 762.048 1056.59 759 1058.4C753.711 1061.53 748.334 1064.52 743 1067.58C737.245 1070.88 728.334 1074.12 725 1080M1605 1080C1615.85 1074.28 1626.34 1067.79 1637 1061.72C1640.7 1059.61 1645.56 1055.3 1650 1055.3C1654.44 1055.3 1659.3 1059.61 1663 1061.72C1673.66 1067.79 1684.15 1074.28 1695 1080C1691.67 1074.12 1682.75 1070.88 1677 1067.58C1671.67 1064.52 1666.29 1061.53 1661 1058.4C1657.95 1056.59 1654.61 1053.95 1651 1053.5C1646.64 1052.95 1642.53 1056.31 1639 1058.4C1631.06 1063.1 1622.93 1067.48 1615 1072.2C1611.24 1074.44 1607.2 1076.13 1605 1080z"/>
<path style="fill:#b6d2de; stroke:none;" d="M726 1079C733.4 1082.1 744.993 1080 753 1080L814 1080C805.726 1071.61 792.176 1066.48 782 1060.58C778.313 1058.44 773.544 1054.21 769 1054.86C764.48 1055.51 759.894 1059.5 756 1061.72C745.974 1067.43 735.938 1073.14 726 1079M1606 1079C1613.4 1082.1 1624.99 1080 1633 1080L1694 1080C1685.73 1071.61 1672.18 1066.48 1662 1060.58C1658.31 1058.44 1653.54 1054.21 1649 1054.86C1644.48 1055.51 1639.89 1059.5 1636 1061.72C1625.97 1067.43 1615.94 1073.14 1606 1079z"/>
<path style="fill:#dcebf2; stroke:none;" d="M0 1057L0 1080L39 1080C33.7401 1075.43 27.0396 1072.3 21 1068.85C14.0592 1064.89 7.23346 1060.38 0 1057M71 1079C77.6777 1081.8 87.7844 1080 95 1080L149 1080C140.982 1073.03 130.196 1068.43 121 1063.15C117.602 1061.2 113.173 1057.27 109 1057.92C105.167 1058.53 101.313 1061.83 98 1063.72C89.0797 1068.8 80.2914 1074.66 71 1079M181 1079C187.678 1081.8 197.784 1080 205 1080L259 1080C250.982 1073.03 240.196 1068.43 231 1063.15C227.602 1061.2 223.173 1057.27 219 1057.92C215.167 1058.53 211.313 1061.83 208 1063.72C199.08 1068.8 190.291 1074.66 181 1079M621 1079C627.678 1081.8 637.784 1080 645 1080L699 1080C690.982 1073.03 680.196 1068.43 671 1063.15C667.602 1061.2 663.173 1057.27 659 1057.92C655.167 1058.53 651.312 1061.83 648 1063.72C639.08 1068.8 630.291 1074.66 621 1079M1501 1079C1507.68 1081.8 1517.78 1080 1525 1080L1579 1080C1570.98 1073.03 1560.2 1068.43 1551 1063.15C1547.6 1061.2 1543.17 1057.27 1539 1057.92C1535.17 1058.53 1531.31 1061.83 1528 1063.72C1519.08 1068.8 1510.29 1074.66 1501 1079M1721 1079C1727.68 1081.8 1737.78 1080 1745 1080L1799 1080C1790.98 1073.03 1780.2 1068.43 1771 1063.15C1767.83 1061.33 1763.83 1057.81 1760 1057.92C1755.91 1058.03 1751.43 1061.77 1748 1063.72C1739.07 1068.79 1730.29 1074.66 1721 1079z"/>
</svg>
